<svg id="traffic-jam" xmlns="http://www.w3.org/2000/svg" width="22.29" height="17.146" viewBox="0 0 22.29 17.146">
	<path id="Path_1" data-name="Path 1" d="M205.476,283.227a2.268,2.268,0,0,0-.681-1.437,1.544,1.544,0,0,0-1.3-.555.952.952,0,0,0-.789.386,1.518,1.518,0,0,0-.178,1.242c.04.132.125.408,1.175.708a4.872,4.872,0,0,0,1.127.2c.386.018.672-.221.641-.541Zm-2.169-.687a.7.7,0,0,1,.069-.428c.015-.02.036-.049.124-.049a.746.746,0,0,1,.694.3,1.544,1.544,0,0,1,.374.561A4.893,4.893,0,0,1,203.307,282.54Z" transform="translate(-193.752 -271.363)" fill="#141e33" />
	<path id="Path_2" data-name="Path 2" d="M262.808,302.19h-4.7a.414.414,0,0,0,0,.827h4.7A.414.414,0,0,0,262.808,302.19Z" transform="translate(-245.856 -291.162)" fill="#141e33" />
	<path id="Path_3" data-name="Path 3" d="M271.735,322.26h-3.6a.414.414,0,0,0,0,.827h3.6A.414.414,0,0,0,271.735,322.26Z" transform="translate(-255.34 -310.095)" fill="#141e33" />
	<path id="Path_4" data-name="Path 4" d="M360.626,281.24a1.546,1.546,0,0,0-1.3.555,2.265,2.265,0,0,0-.681,1.437.492.492,0,0,0,.434.524,3.786,3.786,0,0,0,1.335-.181c1.048-.3,1.134-.575,1.175-.708C361.784,282.246,361.542,281.237,360.626,281.24Zm.192,1.3a4.9,4.9,0,0,1-1.26.379,1.543,1.543,0,0,1,.374-.561.743.743,0,0,1,.694-.3c.087,0,.11.029.124.049A.7.7,0,0,1,360.818,282.545Z" transform="translate(-341.165 -271.368)" fill="#141e33" />
	<path id="Path_5" data-name="Path 5" d="M183.706,199.67a.925.925,0,0,0-.827.415l-.938-1.948a1.47,1.47,0,0,0-1.012-.681,30.655,30.655,0,0,0-7.1,0,1.47,1.47,0,0,0-1.012.681l-.938,1.948a.924.924,0,0,0-.827-.415c-1.852.059-1.613,1.978.163,1.858a5.666,5.666,0,0,1-.566.9,1.765,1.765,0,0,0-.358,1.374,17.006,17.006,0,0,1,.185,2.763.9.9,0,0,0,.159.506v1.14a.8.8,0,0,0,.8.8h1.257a.8.8,0,0,0,.8-.8v-.748h7.776v.748a.8.8,0,0,0,.8.8h1.259a.8.8,0,0,0,.8-.8v-1.14a.893.893,0,0,0,.159-.506,17.157,17.157,0,0,1,.185-2.764,1.765,1.765,0,0,0-.358-1.374,5.664,5.664,0,0,1-.566-.9c1.778.12,2.016-1.8.16-1.858ZM173.565,198.5c.355-.454,2.41-.4,3.816-.418,1.408.017,3.458-.037,3.817.418l.882,1.829h-9.4Zm-2.933,2.105a.791.791,0,0,1,.424-.1c.018,0,.11,0,.128.03a.359.359,0,0,1,.035.17,1.585,1.585,0,0,1-.165.007A.8.8,0,0,1,170.632,200.6Zm2.033,7.584h-1.2v-.722h1.2Zm.724-1.55c.232-.25.386-.38.629-.38h6.728c.242,0,.4.13.629.38Zm8.707,1.55v-.722h1.2v.722Zm1.557-4.519a18.1,18.1,0,0,0-.2,2.9.073.073,0,0,1-.074.073h-.846c-.583-.469-.86-1.192-1.793-1.207h-6.728c-.933.015-1.209.738-1.793,1.207h-.842a.074.074,0,0,1-.074-.074,17.927,17.927,0,0,0-.2-2.9.938.938,0,0,1,.192-.727,7.915,7.915,0,0,0,1-1.786h10.156a7.85,7.85,0,0,0,1,1.785.934.934,0,0,1,.192.729Zm.055-2.961a1.576,1.576,0,0,1-.165-.007.352.352,0,0,1,.035-.17c.019-.029.11-.03.128-.03a.225.225,0,1,1,0,.208Z" transform="translate(-162.703 -191.866)" fill="#141e33" />
	<path id="Path_6" data-name="Path 6" d="M49.443,147.282a.8.8,0,0,0,.8-.8v-.751h2.786a.414.414,0,1,0,0-.827H50.138c.232-.25.386-.38.629-.38h2.261a.414.414,0,0,0,0-.827H50.767c-.933.015-1.209.737-1.793,1.207h-.846a.074.074,0,0,1-.074-.074,17.921,17.921,0,0,0-.2-2.9.937.937,0,0,1,.192-.728,7.8,7.8,0,0,0,1-1.785h6.762a.414.414,0,1,0,0-.827H49.433l.882-1.831c.355-.454,2.409-.4,3.817-.417,1.408.017,3.457-.038,3.816.417l.59,1.227a.414.414,0,1,0,.746-.358l-.59-1.227a1.469,1.469,0,0,0-1.012-.68,17.579,17.579,0,0,0-3.55-.206,17.573,17.573,0,0,0-3.55.206,1.469,1.469,0,0,0-1.012.68l-.938,1.949a.925.925,0,0,0-.827-.416c-1.856.059-1.616,1.98.16,1.859a5.685,5.685,0,0,1-.566.9,1.765,1.765,0,0,0-.358,1.374,17.011,17.011,0,0,1,.185,2.763.9.9,0,0,0,.159.507v1.142a.8.8,0,0,0,.8.8Zm-2.062-8.411a.8.8,0,0,1,.424-.1c.018,0,.11,0,.128.03a.355.355,0,0,1,.035.171,1.614,1.614,0,0,1-.165.007A.8.8,0,0,1,47.381,138.87Zm2.033,7.584h-1.2v-.722h1.2Z" transform="translate(-46.519 -133.984)" fill="#0c93f1" />
	<path id="Path_7" data-name="Path 7" d="M81.534,220.112a1.564,1.564,0,0,0-1.341-.6c-.915,0-1.158,1.006-.967,1.627.041.132.125.408,1.175.708a3.785,3.785,0,0,0,1.335.181.49.49,0,0,0,.434-.524A2.247,2.247,0,0,0,81.534,220.112Zm-1.533.7a.705.705,0,0,1,.069-.428c.015-.021.036-.049.124-.049a.747.747,0,0,1,.694.294,1.544,1.544,0,0,1,.374.56A4.813,4.813,0,0,1,80,220.815Z" transform="translate(-77.365 -213.149)" fill="#0c93f1" />
	<path id="Path_8" data-name="Path 8" d="M220.509,107.9a15.337,15.337,0,0,0-3.562-.239,30.5,30.5,0,0,0-3.521.232.414.414,0,0,0,.11.82,30.244,30.244,0,0,1,3.413-.224,14.82,14.82,0,0,1,3.372.217.657.657,0,0,1,.436.28l1.165,2.793a.414.414,0,1,0,.763-.319l-1.165-2.793A1.452,1.452,0,0,0,220.509,107.9Z" transform="translate(-203.613 -107.66)" fill="#141e33" />
</svg>
