<svg xmlns="http://www.w3.org/2000/svg" width="26.378" height="22.123" viewBox="0 0 26.378 22.123">
	<g id="Group_102" data-name="Group 102" transform="translate(0 -5.105)">
		<g id="Group_101" data-name="Group 101">
			<g id="cloudy" transform="translate(0 5.105)">
				<path id="Path_1" data-name="Path 1" d="M19.554,58.3a4.452,4.452,0,0,1,8.612-1.289,3.007,3.007,0,0,1-.037,6.013H19.637a2.363,2.363,0,0,1-.082-4.724Zm0,0" transform="translate(-16.405 -51.396)" fill="#dbdbdb" />
				<path id="Path_2" data-name="Path 2" d="M86.684,60.017a3.008,3.008,0,0,1-1.724,2.72,3.008,3.008,0,0,0-2.684-4.289,4.453,4.453,0,0,0-6.515-2.222,4.452,4.452,0,0,1,7.952.784,3.007,3.007,0,0,1,2.971,3.006Zm0,0" transform="translate(-71.952 -51.401)" fill="#f2f2f2" />
				<path id="Path_3" data-name="Path 3" d="M214.733,160.3a5.01,5.01,0,0,0-9.691-1.451,3.384,3.384,0,0,0,.041,6.767h9.557a2.659,2.659,0,0,0,.093-5.316Zm0,0" transform="translate(-190.921 -148.038)" fill="#dbdbdb" />
				<path id="Path_4" data-name="Path 4" d="M300.868,162.953a2.66,2.66,0,0,1-2.66,2.66H298a2.66,2.66,0,0,0-2.265-3.889,5.013,5.013,0,0,0-6.046-4.592,5.009,5.009,0,0,1,8.61,3.165A2.658,2.658,0,0,1,300.868,162.953Zm0,0" transform="translate(-274.49 -148.038)" fill="#f2f2f2" />
				<path id="Path_5" data-name="Path 5" d="M203.392,80.587a5.962,5.962,0,1,1-5.962-5.962A5.962,5.962,0,0,1,203.392,80.587Zm0,0" transform="translate(-181.398 -71.024)" fill="#f6cb43" />
				<path id="Path_6" data-name="Path 6" d="M197.434,88.768a5.963,5.963,0,0,1-1.182-11.807,5.967,5.967,0,0,0,7.027,7.027,5.964,5.964,0,0,1-5.845,4.78Zm0,0" transform="translate(-181.406 -73.246)" fill="#fab03c" />
				<g id="Group_3" data-name="Group 3" transform="translate(11.174)">
					<path id="Path_7" data-name="Path 7" d="M463.954,186.269H462.67a.388.388,0,0,1,0-.777h1.284a.388.388,0,0,1,0,.777Zm0,0" transform="translate(-449.577 -176.166)" fill="#f8e98e" />
					<path id="Path_8" data-name="Path 8" d="M441.241,94.164a.389.389,0,0,1-.194-.725l1.112-.642a.388.388,0,0,1,.388.673l-1.112.642A.386.386,0,0,1,441.241,94.164Zm0,0" transform="translate(-429.225 -88.082)" fill="#f8e98e" />
					<path id="Path_9" data-name="Path 9" d="M382.7,26.738a.388.388,0,0,1-.336-.583L383,25.043a.388.388,0,1,1,.673.388l-.642,1.112A.388.388,0,0,1,382.7,26.738Zm0,0" transform="translate(-373.624 -23.6)" fill="#f8e98e" />
					<path id="Path_10" data-name="Path 10" d="M302.725,2.061a.388.388,0,0,1-.388-.388V.388a.388.388,0,1,1,.777,0V1.673A.388.388,0,0,1,302.725,2.061Zm0,0" transform="translate(-297.674 0)" fill="#f8e98e" />
					<path id="Path_11" data-name="Path 11" d="M210.62,26.74a.388.388,0,0,1-.337-.194l-.642-1.112a.388.388,0,0,1,.673-.388l.642,1.112a.388.388,0,0,1-.336.583Zm0,0" transform="translate(-209.589 -23.601)" fill="#f8e98e" />
				</g>
				<path id="Path_12" data-name="Path 12" d="M13.034,160.3a5.01,5.01,0,0,0-9.691-1.451,3.384,3.384,0,0,0,.041,6.767h9.557a2.659,2.659,0,0,0,.093-5.316Zm0,0" transform="translate(0 -148.038)" fill="#dbdbdb" />
				<path id="Path_13" data-name="Path 13" d="M99.169,162.953a2.66,2.66,0,0,1-2.66,2.66H96.3a2.659,2.659,0,0,0-2.265-3.889,5.014,5.014,0,0,0-6.046-4.592A5.009,5.009,0,0,1,96.6,160.3,2.658,2.658,0,0,1,99.169,162.953Zm0,0" transform="translate(-83.375 -148.038)" fill="#f2f2f2" />
				<path id="Path_14" data-name="Path 14" d="M172.353,253.971a5.01,5.01,0,0,0-9.691-1.451,3.384,3.384,0,0,0,.042,6.767h9.557a2.659,2.659,0,0,0,.093-5.316Zm0,0" transform="translate(-150.673 -237.165)" fill="#d5d5d5" />
				<path id="Path_15" data-name="Path 15" d="M258.485,256.629a2.66,2.66,0,0,1-2.66,2.66h-.206a2.659,2.659,0,0,0-2.264-3.889,5.014,5.014,0,0,0-6.047-4.592,5.009,5.009,0,0,1,8.61,3.165,2.658,2.658,0,0,1,2.567,2.657Zm0,0" transform="translate(-234.238 -237.165)" fill="#f2f2f2" />
				<path id="Path_16" data-name="Path 16" d="M381,310.709a.389.389,0,0,1-.377-.3,3.35,3.35,0,0,0-.183-.548.388.388,0,0,1,.713-.309,4.153,4.153,0,0,1,.225.675.388.388,0,0,1-.287.469A.393.393,0,0,1,381,310.709Zm0,0" transform="translate(-360.555 -293.545)" fill="#fff" />
				<path id="Path_17" data-name="Path 17" d="M3.116,1.941a.387.387,0,0,1-.28-.12A3.364,3.364,0,0,0,.388.777.388.388,0,1,1,.388,0,4.134,4.134,0,0,1,3.4,1.284a.388.388,0,0,1-.28.657Zm0,0" transform="translate(16.948 12.759) rotate(14)" fill="#fff" />
				<path id="Path_18" data-name="Path 18" d="M44.214,309.44a3.582,3.582,0,0,1,6.928-1.037,2.419,2.419,0,0,1-.03,4.838H44.281a1.9,1.9,0,0,1-.066-3.8Zm0,0" transform="translate(-40.249 -291.118)" fill="#dbdbdb" />
				<path id="Path_19" data-name="Path 19" d="M112.593,310.825a2.419,2.419,0,0,1-2.386,2.419,2.419,2.419,0,0,0-1.752-4.055,3.583,3.583,0,0,0-3.888-2.285,3.581,3.581,0,0,1,5.637,1.5A2.419,2.419,0,0,1,112.593,310.825Zm0,0" transform="translate(-99.12 -291.121)" fill="#f2f2f2" />
			</g>
		</g>
	</g>
</svg>
