<svg xmlns="http://www.w3.org/2000/svg" width="21.97" height="21.05" viewBox="0 0 21.97 21.05">
  <g id="Group_5" data-name="Group 5" transform="translate(-1.042 -1.465)">
    <g id="Group" transform="translate(2.042 2.485)">
      <path id="Vector" d="M3.531,0a3.765,3.765,0,0,0,0,7.515H5.463" transform="translate(0 8.702)" fill="none" stroke="#fff" stroke-linecap="round" stroke-linejoin="round" stroke-width="2"/>
      <path id="Vector-2" data-name="Vector" d="M.489,8.7c-3.2-8.984,10.3-12.576,11.849-3.139,4.319.553,6.064,6.358,2.793,9.246A5.3,5.3,0,0,1,11.5,16.218h-.09" transform="translate(3.088)" fill="none" stroke="#fff" stroke-linecap="round" stroke-linejoin="round" stroke-width="2"/>
    </g>
    <path id="Vector-3" data-name="Vector" d="M10.061,5.03A4.743,4.743,0,0,1,9.6,7.1a4.136,4.136,0,0,1-.272.513,5,5,0,0,1-8.592,0A4.136,4.136,0,0,1,.463,7.1,4.743,4.743,0,0,1,0,5.03a5.03,5.03,0,0,1,10.061,0Z" transform="translate(6.97 11.454)" fill="none" stroke="#fff" stroke-linecap="round" stroke-linejoin="round" stroke-width="2"/>
    <g id="Group_1" data-name="Group 1" transform="translate(10.736 14.629)">
      <path id="Vector-4" data-name="Vector" d="M0,0V3.792L1.264,2.528" transform="translate(1.264)" fill="none" stroke="#fff" stroke-linecap="round" stroke-linejoin="round" stroke-width="1.5"/>
      <path id="Vector-5" data-name="Vector" d="M1.264,1.264,0,0" transform="translate(0 2.528)" fill="none" stroke="#fff" stroke-linecap="round" stroke-linejoin="round" stroke-width="1.5"/>
    </g>
  </g>
</svg>
