<svg xmlns="http://www.w3.org/2000/svg" width="28.448" height="32" viewBox="0 0 28.448 32">
	<g id="Group_103" data-name="Group 103" transform="translate(5 2)">
		<path id="Path_13" data-name="Path 13" d="M56.006,21.924a12.666,12.666,0,0,0,7.365,2.344V19.012a7.493,7.493,0,0,1-1.547-.161v4.138a12.669,12.669,0,0,1-7.365-2.344V31.372a9.78,9.78,0,0,1-15.206,8.073,9.779,9.779,0,0,0,16.753-6.794V21.924Zm1.908-5.3a7.309,7.309,0,0,1-1.908-4.29v-.676H54.54a7.359,7.359,0,0,0,3.374,4.966ZM42.665,35.328a4.411,4.411,0,0,1-.911-2.691A4.475,4.475,0,0,1,47.577,28.4V23.026a9.9,9.9,0,0,0-1.546-.089v4.183a4.475,4.475,0,0,0-5.824,4.237A4.442,4.442,0,0,0,42.665,35.328Z" transform="translate(-39.922 -12.369)" fill="#ff004f" />
		<path id="Path_14" data-name="Path 14" d="M32.008,20.643a12.671,12.671,0,0,0,7.365,2.344V18.849a7.4,7.4,0,0,1-3.91-2.229,7.358,7.358,0,0,1-3.374-4.965h-3.85V32.648a4.474,4.474,0,0,1-8.025,2.675,4.44,4.44,0,0,1,2.01-8.413,4.5,4.5,0,0,1,1.356.208V22.935A9.7,9.7,0,0,0,16.8,39.44a9.78,9.78,0,0,0,15.206-8.072V20.643Z" transform="translate(-17.472 -12.369)" />
		<path id="Path_15" data-name="Path 15" d="M26.9,8.473V7.355a7.394,7.394,0,0,1-3.91-1.111A7.4,7.4,0,0,0,26.9,8.473ZM19.618,1.279q-.053-.3-.081-.6V0H14.221V20.991a4.475,4.475,0,0,1-6.479,3.954,4.474,4.474,0,0,0,8.025-2.675V1.279ZM11.109,12.559V11.368a9.915,9.915,0,0,0-1.34-.09A9.7,9.7,0,0,0,4.331,29.063a9.7,9.7,0,0,1,6.778-16.5Z" transform="translate(-5 -2)" fill="#00f2ea" />
	</g>
</svg>
